<svg xmlns="http://www.w3.org/2000/svg"
     version="1.1"
     x="0px"
     y="0px" width="32px" height="32px" viewBox="0 0 32 32" enable-background="new 0 0 32 32" xml:space="preserve">
  <path
    style="fill:#434343;fill-opacity:1;stroke:none"
    d="M 13.788295,1.3241379e-6 C 13.258441,1.3241379e-6 12.83188,0.42656132 12.83188,0.95641512 l 0,2.43088348 C 11.594732,3.6944164 10.403984,4.1887158 9.2851806,4.8617707 L 7.5716065,3.1481959 c -0.3746627,-0.3746629 -0.9802564,-0.3746629 -1.3549192,0 L 3.1083436,6.2565387 c -0.3746626,0.3746639 -0.3746626,0.980256 0,1.3549199 L 4.8219178,9.3250339 C 4.1541311,10.440569 3.6910851,11.644819 3.3872978,12.871732 l -2.43088435,0 C 0.42656041,12.871732 0,13.298292 0,13.828142 l 0,4.383563 c 0,0.529854 0.42656041,0.956414 0.95641345,0.956414 l 2.39103375,0 c 0.307067,1.238251 0.8008512,2.426955 1.4744706,3.546699 l -1.7135742,1.713575 c -0.3746626,0.374661 -0.3746626,0.980256 0,1.354921 l 3.1083437,3.108342 c 0.3746629,0.374662 0.9802565,0.374662 1.3549192,0 l 1.7135741,-1.713574 c 1.1236924,0.677719 2.3093344,1.12739 3.5466994,1.43462 l 0,2.430884 C 12.83188,31.57344 13.258441,32 13.788295,32 l 4.383563,0 c 0.52985,0 0.95641,-0.42656 0.95641,-0.956413 l 0,-2.430885 c 1.24001,-0.30559 2.425185,-0.761767 3.5467,-1.43462 l 1.713575,1.713574 c 0.374664,0.374662 0.980256,0.374662 1.35492,0 l 3.108343,-3.108342 c 0.374662,-0.374665 0.374662,-0.98026 0,-1.354921 l -1.713575,-1.713575 c 0.674452,-1.117718 1.166647,-2.315963 1.474471,-3.546698 l 2.430885,0 C 31.57344,19.168119 32,18.741559 32,18.211705 l 0,-4.383559 c 0,-0.529854 -0.42656,-0.956414 -0.956413,-0.956414 l -2.430885,0 C 28.307437,11.642049 27.805034,10.438056 27.138231,9.3250339 l 1.713575,-1.7135753 c 0.374662,-0.3746639 0.374662,-0.980256 0,-1.3549199 L 25.743463,3.1481959 c -0.374664,-0.3746629 -0.980256,-0.3746629 -1.35492,0 L 22.674968,4.8617707 C 21.555129,4.1896152 20.36061,3.6922426 19.128268,3.3872986 l 0,-2.43088348 c 0,-0.5298538 -0.42656,-0.9564137958621 -0.95641,-0.9564137958621 l -4.383563,0 z M 15.820672,9.9626406 c 1.549644,-0.041137 3.129994,0.4829094 4.343712,1.6338724 2.427433,2.301926 2.541027,6.140437 0.239103,8.567871 -2.296244,2.421441 -6.138424,2.526877 -8.567871,0.239103 C 9.4081833,18.101561 9.2945878,14.26305 11.596513,11.835616 12.747477,10.6219 14.271029,10.003767 15.820672,9.9626417 z"
    />
</svg>
